<?xml version="1.0" encoding="UTF-8"?>
<svg width="32px" height="32px" viewBox="0 0 32 32" version="1.1" xmlns="http://www.w3.org/2000/svg" xmlns:xlink="http://www.w3.org/1999/xlink">
    <title>SHOP 2</title>
    <g id="propuesta-1" stroke="none" stroke-width="1" fill="none" fill-rule="evenodd">
        <g id="home" transform="translate(-380.000000, -1127.000000)" stroke="#ECAB2F" stroke-width="2">
            <g id="SELECTION" transform="translate(158.000000, 758.000000)">
                <g id="Group" transform="translate(222.000000, 369.000000)">
                    <path d="M21.9552862,11 C22.4767874,11 22.954511,11.2003818 23.3122086,11.5307275 C23.6699062,11.8610733 23.9075777,12.3213829 23.9489749,12.8412384 L23.9489749,12.8412384 L24.7452956,22.8412384 C24.7891364,23.3917804 24.6056756,23.9079726 24.2736191,24.2974894 C23.9486913,24.6786441 23.4814795,24.9385041 22.9457286,24.9905633 L22.9457286,24.9905633 L9.29369104,25 C8.74140629,25 8.24140629,24.7761424 7.87947748,24.4142136 C7.52662829,24.0613644 7.30500966,23.5772846 7.29411234,23.041465 L7.29411234,23.041465 L8.23770623,12.8137481 C8.28577838,12.2997855 8.52550258,11.8463484 8.88226023,11.5214021 C9.23901788,11.1964557 9.71280897,11 10.2290149,11 L10.2290149,11 Z" id="Rectangle"></path>
                    <path d="M11,13.4884017 L11,8 C11,6.8954305 11.8954305,6 13,6 L19,6 C20.1045695,6 21,6.8954305 21,8 L21,13.7025326 L21,13.7025326" id="Rectangle"></path>
                    <circle id="Oval" cx="16" cy="16" r="15"></circle>
                </g>
            </g>
        </g>
    </g>
</svg>