<?xml version="1.0" encoding="UTF-8"?>
<svg width="32px" height="32px" viewBox="0 0 32 32" version="1.1" xmlns="http://www.w3.org/2000/svg" xmlns:xlink="http://www.w3.org/1999/xlink">
    <title>00266E14-C22D-414E-ABFA-63580E188456</title>
    <g id="propuesta-1" stroke="none" stroke-width="1" fill="none" fill-rule="evenodd">
        <g id="home" transform="translate(-632.000000, -2731.000000)" fill="#000000">
            <g id="socialmedia" transform="translate(632.000000, 2731.000000)">
                <path d="M32,8.37013986 C32,3.76650822 28.2334918,0 23.6298601,0 L8.37013986,0 C3.76650822,0 0,3.76650822 0,8.37013986 L0,23.6287659 C0,28.2323975 3.76650822,31.9989057 8.37013986,31.9989057 L13.5001197,31.9989057 L13.5001197,21.150224 L9.43706186,21.150224 L9.43706186,16.5247068 L13.5001197,16.5247068 L13.5001197,13.0000342 C13.5001197,8.98950176 15.8878364,6.77468112 19.5427282,6.77468112 C21.2935745,6.77468112 23.1253975,7.08764491 23.1253975,7.08764491 L23.1253975,11.0248607 L21.1075471,11.0248607 C19.1192422,11.0248607 18.4998803,12.2581131 18.4998803,13.5230995 L18.4998803,16.5247068 L22.9371815,16.5247068 L22.2269945,21.150224 L18.4998803,21.150224 L18.4998803,31.9989057 L23.6298601,31.9989057 C28.2334918,31.9989057 32,28.2323975 32,23.6287659 L32,8.37013986 Z" id="facebook"></path>
            </g>
        </g>
    </g>
</svg>