<?xml version="1.0" encoding="UTF-8"?>
<svg width="32px" height="32px" viewBox="0 0 32 32" version="1.1" xmlns="http://www.w3.org/2000/svg" xmlns:xlink="http://www.w3.org/1999/xlink">
    <title>0CF83B83-70E6-49C9-B688-5340D116CCD5</title>
    <g id="propuesta-1" stroke="none" stroke-width="1" fill="none" fill-rule="evenodd">
        <g id="home" transform="translate(-680.000000, -2731.000000)" fill="#000000">
            <g id="socialmedia" transform="translate(632.000000, 2731.000000)">
                <path d="M67.7445318,8.38585596 C69.8784488,8.38585596 71.6151289,10.1214418 71.6151289,12.2553587 L71.6151289,12.2553587 L71.6151289,19.7459544 C71.6151289,21.8798714 69.8784488,23.6154572 67.7445318,23.6154572 L67.7445318,23.6154572 L60.2539361,23.6154572 C58.1200192,23.6154572 56.3844333,21.8798714 56.3844333,19.7459544 L56.3844333,19.7459544 L56.3844333,12.2553587 C56.3844333,10.1214418 58.1200192,8.38585596 60.2539361,8.38585596 L60.2539361,8.38585596 Z M64.0763833,11.3809999 C61.5288147,11.3809999 59.4572738,13.4525409 59.4572738,16.0001094 C59.4572738,18.5487723 61.5288147,20.6214076 64.0763833,20.6214076 C66.6239519,20.6214076 68.6965871,18.5487723 68.6965871,16.0001094 C68.6965871,13.4525409 66.6239519,11.3809999 64.0763833,11.3809999 Z M64.0766021,13.0409685 C65.7082279,13.0409685 67.0356337,14.3683743 67.0356337,16.0010943 C67.0356337,17.6327201 65.7082279,18.9601258 64.0766021,18.9601258 C62.4449764,18.9601258 61.1164763,17.6327201 61.1164763,16.0010943 C61.1164763,14.3683743 62.4449764,13.0409685 64.0766021,13.0409685 Z M68.9657889,9.9704261 C68.3584433,9.9704261 67.866001,10.4628685 67.866001,11.0702141 C67.866001,11.6775597 68.3584433,12.1700021 68.9657889,12.1700021 C69.5742288,12.1700021 70.0666712,11.6775597 70.0666712,11.0702141 C70.0666712,10.4628685 69.5742288,9.9704261 68.9657889,9.9704261 Z M73.3793858,19.745845 C73.3793858,22.8526093 70.8515149,25.3804801 67.7447507,25.3804801 L60.254155,25.3804801 C57.1473907,25.3804801 54.6184256,22.8526093 54.6184256,19.745845 L54.6184256,12.2552493 C54.6184256,9.14848506 57.1473907,6.62061419 60.254155,6.62061419 L67.7447507,6.62061419 C70.8515149,6.62061419 73.3793858,9.14848506 73.3793858,12.2552493 L73.3793858,19.745845 Z M71.6284796,0.00109431639 L56.3693318,3.55271368e-14 C51.7655427,3.55271368e-14 48,3.76663703 48,8.3704261 L48,23.6306682 C48,28.2344573 51.7655427,32.0010943 56.3693318,32.0010943 L71.6284796,32.0010943 C76.2322687,32.0010943 80,28.2344573 80,23.6306682 L80,8.3704261 C80,3.76663703 76.2322687,0.00109431639 71.6284796,0.00109431639 L71.6284796,0.00109431639 Z" id="Instagram"></path>
            </g>
        </g>
    </g>
</svg>