<?xml version="1.0" encoding="UTF-8"?>
<svg width="23px" height="23px" viewBox="0 0 23 23" version="1.1" xmlns="http://www.w3.org/2000/svg" xmlns:xlink="http://www.w3.org/1999/xlink">
    <title>531435C5-F7C1-4976-B511-4CCB23764C65</title>
    <g id="propuesta-1" stroke="none" stroke-width="1" fill="none" fill-rule="evenodd">
        <g id="home" transform="translate(-1219.000000, -19.000000)" stroke="#ECAB2F" stroke-width="2">
            <g id="SHOP" transform="translate(1219.790928, 20.000000)">
                <path d="M17.8356255,6 C18.3560539,6 18.8329831,6.19958369 19.1904953,6.52883457 C19.5480075,6.85808545 19.7861027,7.31700352 19.8288631,7.83567227 L19.8288631,7.83567227 L20.7357319,18.8356723 C20.7811098,19.3860897 20.599091,19.9027921 20.2681234,20.2932346 C19.9445178,20.6749922 19.4785162,20.9360444 18.9434469,20.9898857 L18.9434469,20.9898857 L3.30453287,21 C2.75224812,21 2.25224812,20.7761424 1.89031931,20.4142136 C1.53779748,20.0616917 1.31626282,19.5781827 1.30498504,19.0429562 L1.30498504,19.0429562 L2.37901299,7.80723459 C2.42864549,7.29467965 2.66884148,6.842871 3.02536743,6.51920109 C3.38189339,6.19553118 3.85474931,6 4.36970169,6 L4.36970169,6 Z" id="Rectangle"></path>
                <path d="M6,8.01541066 L6,2 C6,0.8954305 6.8954305,-2.41183085e-16 8,0 L14,0 C15.1045695,-2.02906125e-16 16,0.8954305 16,2 L16,8.21720413 L16,8.21720413" id="Rectangle"></path>
            </g>
        </g>
    </g>
</svg>