<?xml version="1.0" encoding="UTF-8"?>
<svg width="32px" height="32px" viewBox="0 0 32 32" version="1.1" xmlns="http://www.w3.org/2000/svg" xmlns:xlink="http://www.w3.org/1999/xlink">
    <title>SHOP_trash</title>
    <g id="propuesta-1" stroke="none" stroke-width="1" fill="none" fill-rule="evenodd">
        <g id="TEQUILA-Tierra-noble-extra-añejo_agregar-a-bolsa" transform="translate(-1168.000000, -284.000000)" stroke="#ECAB2F" stroke-width="2">
            <g id="1-producto" transform="translate(1060.000000, 172.000000)">
                <g id="Group" transform="translate(108.000000, 112.000000)">
                    <circle id="Oval" cx="16" cy="16" r="15"></circle>
                    <g transform="translate(7.000000, 7.000000)">
                        <path d="M4.69290123,2.14772727 L14.4886364,2.14772727 C16.1454906,2.14772727 17.4886364,3.49087302 17.4886364,5.14772727 L17.4886364,13.0568182 C17.4886364,14.7136724 16.1454906,16.0568182 14.4886364,16.0568182 L5.21546284,16.0568182 L5.21546284,16.0568182" id="Rectangle" transform="translate(9.000000, 9.102273) rotate(90.000000) translate(-9.000000, -9.102273) "></path>
                        <line x1="6.13636364" y1="6.87357955" x2="6.13636364" y2="14.0923295" id="Line-2" stroke-linecap="square"></line>
                        <line x1="11.8636364" y1="6.87357955" x2="11.8636364" y2="14.0923295" id="Line-2-Copy" stroke-linecap="square"></line>
                        <line x1="0.409090909" y1="3.68181818" x2="17.5909091" y2="3.68181818" id="Line" stroke-linecap="round"></line>
                        <path d="M4.90909091,2.8279541 L4.90909091,2 C4.90909091,0.8954305 5.80452141,5.66251842e-16 6.90909091,3.63345717e-16 L11.0909091,3.63345717e-16 C12.1954786,1.60439592e-16 13.0909091,0.8954305 13.0909091,2 L13.0909091,3.45043975 L13.0909091,3.45043975" id="Rectangle"></path>
                    </g>
                </g>
            </g>
        </g>
    </g>
</svg>