<?xml version="1.0" encoding="UTF-8"?>
<svg width="32px" height="32px" viewBox="0 0 32 32" version="1.1" xmlns="http://www.w3.org/2000/svg" xmlns:xlink="http://www.w3.org/1999/xlink">
    <title>4759423A-819C-4BD6-95C9-B5C8B7ABA681</title>
    <g id="propuesta-1" stroke="none" stroke-width="1" fill="none" fill-rule="evenodd">
        <g id="home" transform="translate(-728.000000, -2731.000000)" fill="#000000">
            <g id="socialmedia" transform="translate(632.000000, 2731.000000)">
                <path d="M120.911503,10.532075 C120.911503,10.5780331 120.910409,10.6874573 120.819587,10.8100123 C120.411435,11.3582273 119.97155,11.850636 119.424429,12.2609766 C119.344549,12.3200657 119.211052,12.3824374 119.211052,12.4951443 C119.211052,15.3762823 118.475722,18.2541376 116.374778,20.3408562 C113.700451,22.998769 109.687868,23.7220626 106.126111,22.7383395 C105.436739,22.5468472 104.776912,22.2798523 104.14444,21.9450144 C103.934346,21.8312132 103.728628,21.7119409 103.526193,21.5784434 C103.474764,21.5379565 103.436466,21.499658 103.480235,21.472302 C103.524005,21.4504172 103.557926,21.4493229 103.716591,21.472302 C104.713445,21.5707838 105.739844,21.4219669 106.681986,21.0926002 C107.200657,20.9120503 108.3135,20.5476679 108.634113,20.0585419 C108.641773,20.0465053 108.649432,20.0465053 108.658186,20.0355629 C108.527972,20.0049241 108.397757,20.0049241 108.268636,19.981945 C107.301327,19.7051019 106.007933,19.2192587 105.409383,17.5877445 C105.372179,17.4925455 105.409383,17.4433046 105.508959,17.4619067 C106.305567,17.5242785 106.591164,17.4816031 106.869101,17.4203255 C106.712625,17.3940637 106.55396,17.3404459 106.408426,17.2791684 C105.189441,16.81521 104.298728,15.6257694 104.13678,14.3400356 C104.117084,14.1912187 104.106141,14.0653809 104.113801,13.9286007 C104.120367,13.8334017 104.163042,13.802763 104.247299,13.8563808 C104.874299,14.1802763 105.576802,14.2568732 105.634797,14.2448365 C105.47832,14.1233757 105.33388,13.9898783 105.192723,13.8563808 C104.135686,12.8551498 103.725345,10.8165778 104.571194,9.5483518 C104.640131,9.44549309 104.686089,9.44549309 104.769252,9.54069211 C106.703871,11.7444946 109.084941,12.7730817 111.958419,13.1998359 C112.035016,13.2118725 112.042675,13.1998359 112.031733,13.1166735 C111.95623,12.6100397 111.946382,12.1154425 112.068937,11.6142799 C112.195869,11.0956094 112.443168,10.6053891 112.7791,10.1906716 C113.10409,9.79017918 113.511148,9.45862399 113.968541,9.21898509 C114.424839,8.98153467 114.929285,8.83600055 115.443578,8.8031733 C115.971003,8.76815757 116.508275,8.85350841 116.998495,9.05266037 C117.371632,9.20585419 117.702093,9.4115716 118.011763,9.67418958 C118.076323,9.72780741 118.134318,9.79236767 118.194501,9.86130488 C118.2328,9.89960334 118.278758,9.91492272 118.338941,9.89960334 C119.073177,9.71577076 119.763644,9.45643551 120.431131,9.09861852 C120.46177,9.08329914 120.485843,9.07563945 120.524142,9.09095883 C120.555875,9.1139379 120.543838,9.15223636 120.528519,9.18287512 C120.409246,9.57351935 120.198058,9.93461907 119.943099,10.2508549 C119.77568,10.4587608 119.358774,10.9719601 119.074272,11.0201067 C119.672822,10.9194365 120.286691,10.7673369 120.840378,10.5167556 C120.910409,10.4850226 120.911503,10.4707974 120.911503,10.5167556 L120.911503,10.532075 Z M119.629052,0 L104.370948,0 C99.7674737,0 96,3.76637943 96,8.36985365 L96,23.6279579 C96,28.2314321 99.7674737,31.9989058 104.370948,31.9989058 L119.629052,31.9989058 C124.232526,31.9989058 128,28.2314321 128,23.6279579 L128,8.36985365 C128,3.76637943 124.232526,0 119.629052,0 L119.629052,0 Z" id="twitter"></path>
            </g>
        </g>
    </g>
</svg>