<?xml version="1.0" encoding="UTF-8"?>
<svg width="20px" height="24px" viewBox="0 0 20 24" version="1.1" xmlns="http://www.w3.org/2000/svg" xmlns:xlink="http://www.w3.org/1999/xlink">
    <title>AA2C38CD-03D9-4A99-BFC6-04BE0BB66C5D</title>
    <g id="propuesta-1" stroke="none" stroke-width="1" fill="none" fill-rule="evenodd">
        <g id="home" transform="translate(-1166.000000, -19.000000)" stroke="#333433" stroke-width="2">
            <g id="USER" transform="translate(1166.000000, 19.000000)">
                <path d="M9.79092778,1 C11.1564312,1 12.3828361,1.66098889 13.2743119,2.70104391 C14.2173394,3.80124271 14.7909278,5.32363907 14.7909278,7 C14.7909278,9.02237451 13.9562629,10.8249365 12.6435341,11.9240949 C12.4367376,12.0972473 12.2148417,12.2556531 11.979989,12.3983845 C12.1012341,12.6795642 12.2541068,12.9614451 12.4665295,13.2646292 C12.9530175,13.9589774 13.4411431,14.3216079 14.0489687,14.7522677 C15.4029287,15.7115827 17.514573,17.1370534 18.26034,18.8252249 C18.560849,19.5054787 18.8063742,20.1334177 18.7078118,20.68863 C18.6465273,21.0338521 18.393876,21.3024055 17.9736936,21.5406031 C16.6988334,22.2633098 14.2279224,22.6409187 9.90078361,22.6742979 C5.46433026,22.7085203 2.92055662,22.3868218 1.65216506,21.6347075 C1.26358818,21.4042942 1.04056858,21.131147 1.00610947,20.7744664 C0.947844309,20.1713733 1.23670023,19.4701466 1.62807705,18.6722882 C2.7347768,16.4161767 5.42846394,15.2277264 6.71063941,14.6281359 C7.07252562,14.4589051 7.34777345,14.3255277 7.50082223,14.2302633 L7.50082223,14.2302633 L8.78292429,13.4322255 L7.54771517,12.5633708 C5.93426716,11.4284603 4.79092778,9.36631418 4.79092778,7 C4.79092778,5.32363907 5.36451615,3.80124271 6.3075437,2.70104391 C7.19901943,1.66098889 8.42542434,1 9.79092778,1 Z" id="Oval"></path>
            </g>
        </g>
    </g>
</svg>