<?xml version="1.0" encoding="UTF-8"?>
<svg width="32px" height="32px" viewBox="0 0 32 32" version="1.1" xmlns="http://www.w3.org/2000/svg" xmlns:xlink="http://www.w3.org/1999/xlink">
    <title>71014C9F-D1CC-4C6E-8913-A0D167966CE3</title>
    <g id="propuesta-1" stroke="none" stroke-width="1" fill="none" fill-rule="evenodd">
        <g id="home" transform="translate(-776.000000, -2731.000000)" fill="#000000">
            <g id="socialmedia" transform="translate(632.000000, 2731.000000)">
                <path d="M162.604254,15.8495315 L158.386759,13.55475 C158.214951,13.4551672 157.622926,13.5810136 157.622926,13.7790849 L157.622926,18.2537446 C157.622926,18.4507216 158.20948,18.5754736 158.383476,18.4813624 L162.788099,16.3025785 C162.967567,16.2051843 162.781533,15.9502086 162.604254,15.8495315 M168.566309,18.2455372 C168.566309,20.3674167 166.846043,22.0887764 164.724164,22.0887764 L154.899391,22.0887764 C152.776417,22.0887764 151.057246,20.3674167 151.057246,18.2455372 L151.057246,13.6734833 C151.057246,11.5516039 152.776417,9.8324328 154.899391,9.8324328 L164.724164,9.8324328 C166.846043,9.8324328 168.566309,11.5516039 168.566309,13.6734833 L168.566309,18.2455372 Z M167.629574,2.48689958e-14 L152.369332,2.48689958e-14 C147.765543,2.48689958e-14 144,3.76773135 144,8.37152042 L144,23.6306682 C144,28.2344573 147.765543,32 152.369332,32.0010943 L167.629574,32.0010943 C172.233363,32.0010943 176,28.2344573 176,23.6295739 L176,8.37152042 C176,3.76773135 172.233363,2.48689958e-14 167.629574,2.48689958e-14 L167.629574,2.48689958e-14 Z" id="youtube"></path>
            </g>
        </g>
    </g>
</svg>